<svg width="69" height="69" viewBox="0 0 69 69" fill="none" xmlns="http://www.w3.org/2000/svg">
<path fill-rule="evenodd" clip-rule="evenodd" d="M21.0711 66.2899C25.3194 68.0876 29.8869 69.0093 34.5 68.9998C39.1129 69.0089 43.6802 68.0865 47.928 66.2878C52.0271 64.555 55.7517 62.0444 58.8959 58.8949C62.0459 55.7518 64.5566 52.0277 66.2889 47.9289C68.0864 43.6804 69.0085 39.113 68.9999 34.5C69.0085 29.8876 68.0868 25.3209 66.2899 21.073C64.5579 16.974 62.0472 13.2499 58.8969 10.107C55.7543 6.95536 52.0293 4.44419 47.929 2.71307C43.681 0.913626 39.1133 -0.00915924 34.5 7.78476e-05C29.887 -0.00998487 25.3194 0.91142 21.0711 2.70907C16.9713 4.44021 13.247 6.9514 10.1051 10.103C6.95455 13.2459 4.44352 16.97 2.71112 21.069C0.913335 25.3181 -0.00872312 29.8862 0.000125278 34.5C-0.00872312 39.1137 0.913335 43.6818 2.71112 47.9309C4.44385 52.0298 6.95484 55.7538 10.1051 58.8969C13.2483 62.0467 16.9723 64.5573 21.0711 66.2899ZM27.5 27C27.5033 25.8968 28.3968 25.0033 29.5 25C29.851 24.9975 30.1963 25.089 30.5 25.265L43.509 32.797C44.1308 33.1507 44.5132 33.8126 44.509 34.528C44.5128 35.243 44.1305 35.9044 43.509 36.258L30.5 43.7909C30.1967 43.9686 29.8515 44.0622 29.5 44.0619C28.3968 44.0586 27.5033 43.1651 27.5 42.0619V27Z" fill="white"/>
</svg>
